<?xml version="1.0" encoding="utf-8"?>
<!-- Generator: Adobe Illustrator 24.3.0, SVG Export Plug-In . SVG Version: 6.00 Build 0)  -->
<svg version="1.1" id="Capa_1" xmlns="http://www.w3.org/2000/svg" xmlns:xlink="http://www.w3.org/1999/xlink" x="0px" y="0px"
	 viewBox="0 0 1186.8 200" style="enable-background:new 0 0 1186.8 200;" xml:space="preserve">
<style type="text/css">
	.st0{fill:#FFFFFF;}
</style>
<g>
	<path class="st0" d="M295.1,37.7c18.7,0,28.4,11.2,28.4,30.8v3.9h-18.2v-5.1c0-8.8-3.5-12.1-9.6-12.1c-6.1,0-9.6,3.3-9.6,12.1
		c0,25.2,37.6,29.9,37.6,64.9c0,19.6-9.8,30.8-28.7,30.8s-28.7-11.2-28.7-30.8v-7.5h18.2v8.8c0,8.8,3.9,11.9,10,11.9s10-3.2,10-11.9
		c0-25.2-37.6-29.9-37.6-64.9C266.8,48.9,276.4,37.7,295.1,37.7z"/>
	<path class="st0" d="M398.5,161.6h-19.4l-3.3-22.2h-23.6l-3.3,22.2h-17.7l19.6-122.5h28.2L398.5,161.6z M354.6,122.7h18.6l-9.3-62
		L354.6,122.7z"/>
	<path class="st0" d="M449.3,161.6c-1-3.2-1.8-5.1-1.8-15v-19.3c0-11.4-3.9-15.6-12.6-15.6h-6.7v49.9H409V39.1h29.1
		c20,0,28.5,9.3,28.5,28.2v9.6c0,12.6-4,20.8-12.6,24.9c9.6,4,12.8,13.3,12.8,26.1v18.9c0,6,0.2,10.3,2.1,14.9H449.3z M428.3,56.6
		v37.6h7.5c7.2,0,11.6-3.2,11.6-13V69.2c0-8.8-3-12.6-9.8-12.6H428.3z"/>
	<path class="st0" d="M543.2,161.6h-19.4l-3.3-22.2h-23.6l-3.3,22.2h-17.7l19.6-122.5h28.2L543.2,161.6z M499.3,122.7h18.6l-9.3-62
		L499.3,122.7z"/>
	<path class="st0" d="M553.7,57.6V39.1h18.6v16.6l-8.4,19.4H556l5.1-17.5H553.7z"/>
	<path class="st0" d="M612.9,37.7c18.7,0,28.4,11.2,28.4,30.8v3.9H623v-5.1c0-8.8-3.5-12.1-9.6-12.1s-9.6,3.3-9.6,12.1
		c0,25.2,37.6,29.9,37.6,64.9c0,19.6-9.8,30.8-28.7,30.8S584,151.8,584,132.2v-7.5h18.2v8.8c0,8.8,3.8,11.9,10,11.9s10-3.2,10-11.9
		c0-25.2-37.6-29.9-37.6-64.9C584.5,48.9,594.2,37.7,612.9,37.7z"/>
	<path class="st0" d="M723.5,126l13.1-87h26.8v122.5h-18.2V73.7l-13.3,87.9h-18.2l-14.4-86.6v86.6h-16.8V39.1h26.8L723.5,126z"/>
	<path class="st0" d="M798.2,90.7h26.4v17.5h-26.4v35.9h33.3v17.5H779V39.1h52.5v17.5h-33.3V90.7z"/>
	<path class="st0" d="M864.2,90.7h26.4v17.5h-26.4v35.9h33.3v17.5h-52.5V39.1h52.5v17.5h-33.3V90.7z"/>
	<path class="st0" d="M905.3,39.1h59.5v17.5h-20.1v105h-19.2v-105h-20.1V39.1z"/>
	<path class="st0" d="M974.8,39.1H994v122.5h-19.2V39.1z"/>
	<path class="st0" d="M1026.8,72.8v88.7h-17.3V39.1h24.2l19.8,73.3V39.1h17.2v122.5h-19.8L1026.8,72.8z"/>
	<path class="st0" d="M1114.8,93.3h27v38.9c0,19.6-9.8,30.8-28.7,30.8s-28.7-11.2-28.7-30.8V68.5c0-19.6,9.8-30.8,28.7-30.8
		s28.7,11.2,28.7,30.8v11.9h-18.2V67.2c0-8.8-3.9-12.1-10-12.1s-10,3.3-10,12.1v66.2c0,8.8,3.8,11.9,10,11.9s10-3.2,10-11.9v-22.6
		h-8.8V93.3z"/>
</g>
<g>
	<path class="st0" d="M41.1,186l6.6,13.3h141.7l6.6-13.3H41.1z M41.1,186"/>
	<path class="st0" d="M65.1,26.9h107c3.7,0,6.6,3,6.6,6.6s-3,6.6-6.6,6.6h-40.2c-11,0-19.9,8.9-19.9,19.9v6.6h13.3V60
		c0-3.7,3-6.6,6.6-6.6h40.2c11,0,19.9-8.9,19.9-19.9s-8.9-19.9-19.9-19.9h-107c-3.7,0-6.6-3-6.6-6.6V0.3H45.2V7
		C45.2,17.9,54.1,26.9,65.1,26.9L65.1,26.9z M65.1,26.9"/>
	<path class="st0" d="M184.3,146.2h20.9c14.6,0,26.5-11.9,26.5-26.5s-11.9-26.5-26.5-26.5H192V79.9H45.2v33.6c0,17,5.8,33.1,16.2,46
		h-56v13.3h226.4v-13.3h-56C179.1,155.4,182,150.9,184.3,146.2L184.3,146.2z M205.2,106.4c7.3,0,13.3,6,13.3,13.3
		c0,7.3-6,13.3-13.3,13.3h-15.9c1.7-6.3,2.6-12.8,2.6-19.5v-7.1H205.2z M205.2,106.4"/>
</g>
</svg>
